<?xml version="1.0" standalone="no"?>
 <!DOCTYPE svg PUBLIC "-//W3C//DTD SVG 1.1//EN" 
 "http://www.w3.org/Graphics/SVG/1.1/DTD/svg11.dtd"> 
<svg
  xmlns:svg="http://www.w3.org/2000/svg"
  xmlns="http://www.w3.org/2000/svg"
  xmlns:xlink="http://www.w3.org/1999/xlink"
  xmlns:inkscape="http://www.inkscape.org/namespaces/inkscape"
  version="1.1"
  width="297.0022mm" height="210.0072mm" viewBox="0.0000 0.0000 297.0022 210.0072">
<title>SVG Image created as 16k2_new-F_Silkscreen.svg date 2026-05-18T23:17:13 </title>
  <desc>Image generated by PCBNEW </desc>
<g style="fill:#000000; fill-opacity:1.0000;stroke:#000000; stroke-opacity:1.0000;
stroke-linecap:round; stroke-linejoin:round;"
 transform="translate(0 0) scale(1 1)">
</g>
<g style="fill:none; 
stroke:#000000; stroke-width:0.1500; stroke-opacity:1; 
stroke-linecap:round; stroke-linejoin:round;">
<text x="170.0000" y="166.3500"
textLength="2.2500" font-size="1.3333" lengthAdjust="spacingAndGlyphs"
text-anchor="middle" opacity="0" stroke-opacity="0">H3</text>
<g class="stroked-text"><desc>H3</desc>
<path d="M169.2381 166.3048
L169.2381 165.3048
" />
<path d="M169.2381 165.7810
L169.8095 165.7810
" />
<path d="M169.8095 166.3048
L169.8095 165.3048
" />
<path d="M170.1905 165.3048
L170.8095 165.3048
" />
<path d="M170.8095 165.3048
L170.4762 165.6858
" />
<path d="M170.4762 165.6858
L170.6190 165.6858
" />
<path d="M170.6190 165.6858
L170.7143 165.7334
" />
<path d="M170.7143 165.7334
L170.7619 165.7810
" />
<path d="M170.7619 165.7810
L170.8095 165.8762
" />
<path d="M170.8095 165.8762
L170.8095 166.1143
" />
<path d="M170.8095 166.1143
L170.7619 166.2096
" />
<path d="M170.7619 166.2096
L170.7143 166.2572
" />
<path d="M170.7143 166.2572
L170.6190 166.3048
" />
<path d="M170.6190 166.3048
L170.3333 166.3048
" />
<path d="M170.3333 166.3048
L170.2381 166.2572
" />
<path d="M170.2381 166.2572
L170.1905 166.2096
" />
</g><text x="30.0000" y="26.3500"
textLength="2.2500" font-size="1.3333" lengthAdjust="spacingAndGlyphs"
text-anchor="middle" opacity="0" stroke-opacity="0">H1</text>
<g class="stroked-text"><desc>H1</desc>
<path d="M29.2381 26.3048
L29.2381 25.3048
" />
<path d="M29.2381 25.7810
L29.8095 25.7810
" />
<path d="M29.8095 26.3048
L29.8095 25.3048
" />
<path d="M30.8095 26.3048
L30.2381 26.3048
" />
<path d="M30.5238 26.3048
L30.5238 25.3048
" />
<path d="M30.5238 25.3048
L30.4286 25.4477
" />
<path d="M30.4286 25.4477
L30.3333 25.5429
" />
<path d="M30.3333 25.5429
L30.2381 25.5905
" />
</g><text x="170.0000" y="26.3500"
textLength="2.2500" font-size="1.3333" lengthAdjust="spacingAndGlyphs"
text-anchor="middle" opacity="0" stroke-opacity="0">H2</text>
<g class="stroked-text"><desc>H2</desc>
<path d="M169.2381 26.3048
L169.2381 25.3048
" />
<path d="M169.2381 25.7810
L169.8095 25.7810
" />
<path d="M169.8095 26.3048
L169.8095 25.3048
" />
<path d="M170.2381 25.4001
L170.2857 25.3524
" />
<path d="M170.2857 25.3524
L170.3810 25.3048
" />
<path d="M170.3810 25.3048
L170.6190 25.3048
" />
<path d="M170.6190 25.3048
L170.7143 25.3524
" />
<path d="M170.7143 25.3524
L170.7619 25.4001
" />
<path d="M170.7619 25.4001
L170.8095 25.4953
" />
<path d="M170.8095 25.4953
L170.8095 25.5905
" />
<path d="M170.8095 25.5905
L170.7619 25.7334
" />
<path d="M170.7619 25.7334
L170.1905 26.3048
" />
<path d="M170.1905 26.3048
L170.8095 26.3048
" />
</g></g>
<g style="fill:none; 
stroke:#000000; stroke-width:0.1200; stroke-opacity:1; 
stroke-linecap:round; stroke-linejoin:round;">
<path d="M33.3800 154.9790
L33.3800 156.3000
" />
<path d="M33.3800 154.9790
L37.3170 154.9790
" />
<path d="M33.3800 158.7500
L33.3800 159.1300
" />
<path d="M33.3800 160.8710
L33.3800 161.6300
" />
<path d="M33.3800 163.3700
L33.3800 165.0200
" />
<path d="M33.3800 165.0200
L37.3170 165.0200
" />
<path d="M41.6840 154.9790
L45.6200 154.9790
" />
<path d="M41.6840 165.0200
L45.6200 165.0200
" />
<path d="M45.6200 154.9790
L45.6200 165.0200
" />
<path d="M33.3800 74.9790
L33.3800 76.3000
" />
<path d="M33.3800 74.9790
L37.3170 74.9790
" />
<path d="M33.3800 78.7500
L33.3800 79.1300
" />
<path d="M33.3800 80.8710
L33.3800 81.6300
" />
<path d="M33.3800 83.3700
L33.3800 85.0200
" />
<path d="M33.3800 85.0200
L37.3170 85.0200
" />
<path d="M41.6840 74.9790
L45.6200 74.9790
" />
<path d="M41.6840 85.0200
L45.6200 85.0200
" />
<path d="M45.6200 74.9790
L45.6200 85.0200
" />
<path d="M153.8800 34.9790
L153.8800 36.3000
" />
<path d="M153.8800 34.9790
L157.8170 34.9790
" />
<path d="M153.8800 38.7500
L153.8800 39.1300
" />
<path d="M153.8800 40.8710
L153.8800 41.6300
" />
<path d="M153.8800 43.3700
L153.8800 45.0200
" />
<path d="M153.8800 45.0200
L157.8170 45.0200
" />
<path d="M162.1840 34.9790
L166.1200 34.9790
" />
<path d="M162.1840 45.0200
L166.1200 45.0200
" />
<path d="M166.1200 34.9790
L166.1200 45.0200
" />
<path d="M33.3800 34.9790
L33.3800 36.3000
" />
<path d="M33.3800 34.9790
L37.3170 34.9790
" />
<path d="M33.3800 38.7500
L33.3800 39.1300
" />
<path d="M33.3800 40.8710
L33.3800 41.6300
" />
<path d="M33.3800 43.3700
L33.3800 45.0200
" />
<path d="M33.3800 45.0200
L37.3170 45.0200
" />
<path d="M41.6840 34.9790
L45.6200 34.9790
" />
<path d="M41.6840 45.0200
L45.6200 45.0200
" />
<path d="M45.6200 34.9790
L45.6200 45.0200
" />
<path d="M113.3800 114.9790
L113.3800 116.3000
" />
<path d="M113.3800 114.9790
L117.3170 114.9790
" />
<path d="M113.3800 118.7500
L113.3800 119.1300
" />
<path d="M113.3800 120.8710
L113.3800 121.6300
" />
<path d="M113.3800 123.3700
L113.3800 125.0200
" />
<path d="M113.3800 125.0200
L117.3170 125.0200
" />
<path d="M121.6840 114.9790
L125.6200 114.9790
" />
<path d="M121.6840 125.0200
L125.6200 125.0200
" />
<path d="M125.6200 114.9790
L125.6200 125.0200
" />
<path d="M153.3800 154.9790
L153.3800 156.3000
" />
<path d="M153.3800 154.9790
L157.3170 154.9790
" />
<path d="M153.3800 158.7500
L153.3800 159.1300
" />
<path d="M153.3800 160.8710
L153.3800 161.6300
" />
<path d="M153.3800 163.3700
L153.3800 165.0200
" />
<path d="M153.3800 165.0200
L157.3170 165.0200
" />
<path d="M161.6840 154.9790
L165.6200 154.9790
" />
<path d="M161.6840 165.0200
L165.6200 165.0200
" />
<path d="M165.6200 154.9790
L165.6200 165.0200
" />
<path d="M73.3800 154.9790
L73.3800 156.3000
" />
<path d="M73.3800 154.9790
L77.3170 154.9790
" />
<path d="M73.3800 158.7500
L73.3800 159.1300
" />
<path d="M73.3800 160.8710
L73.3800 161.6300
" />
<path d="M73.3800 163.3700
L73.3800 165.0200
" />
<path d="M73.3800 165.0200
L77.3170 165.0200
" />
<path d="M81.6840 154.9790
L85.6200 154.9790
" />
<path d="M81.6840 165.0200
L85.6200 165.0200
" />
<path d="M85.6200 154.9790
L85.6200 165.0200
" />
<path d="M113.3800 34.9790
L113.3800 36.3000
" />
<path d="M113.3800 34.9790
L117.3170 34.9790
" />
<path d="M113.3800 38.7500
L113.3800 39.1300
" />
<path d="M113.3800 40.8710
L113.3800 41.6300
" />
<path d="M113.3800 43.3700
L113.3800 45.0200
" />
<path d="M113.3800 45.0200
L117.3170 45.0200
" />
<path d="M121.6840 34.9790
L125.6200 34.9790
" />
<path d="M121.6840 45.0200
L125.6200 45.0200
" />
<path d="M125.6200 34.9790
L125.6200 45.0200
" />
<path d="M113.3800 74.9790
L113.3800 76.3000
" />
<path d="M113.3800 74.9790
L117.3170 74.9790
" />
<path d="M113.3800 78.7500
L113.3800 79.1300
" />
<path d="M113.3800 80.8710
L113.3800 81.6300
" />
<path d="M113.3800 83.3700
L113.3800 85.0200
" />
<path d="M113.3800 85.0200
L117.3170 85.0200
" />
<path d="M121.6840 74.9790
L125.6200 74.9790
" />
<path d="M121.6840 85.0200
L125.6200 85.0200
" />
<path d="M125.6200 74.9790
L125.6200 85.0200
" />
<path d="M153.3800 74.9790
L153.3800 76.3000
" />
<path d="M153.3800 74.9790
L157.3170 74.9790
" />
<path d="M153.3800 78.7500
L153.3800 79.1300
" />
<path d="M153.3800 80.8710
L153.3800 81.6300
" />
<path d="M153.3800 83.3700
L153.3800 85.0200
" />
<path d="M153.3800 85.0200
L157.3170 85.0200
" />
<path d="M161.6840 74.9790
L165.6200 74.9790
" />
<path d="M161.6840 85.0200
L165.6200 85.0200
" />
<path d="M165.6200 74.9790
L165.6200 85.0200
" />
<path d="M73.3800 114.9790
L73.3800 116.3000
" />
<path d="M73.3800 114.9790
L77.3170 114.9790
" />
<path d="M73.3800 118.7500
L73.3800 119.1300
" />
<path d="M73.3800 120.8710
L73.3800 121.6300
" />
<path d="M73.3800 123.3700
L73.3800 125.0200
" />
<path d="M73.3800 125.0200
L77.3170 125.0200
" />
<path d="M81.6840 114.9790
L85.6200 114.9790
" />
<path d="M81.6840 125.0200
L85.6200 125.0200
" />
<path d="M85.6200 114.9790
L85.6200 125.0200
" />
<path d="M33.3800 114.9790
L33.3800 116.3000
" />
<path d="M33.3800 114.9790
L37.3170 114.9790
" />
<path d="M33.3800 118.7500
L33.3800 119.1300
" />
<path d="M33.3800 120.8710
L33.3800 121.6300
" />
<path d="M33.3800 123.3700
L33.3800 125.0200
" />
<path d="M33.3800 125.0200
L37.3170 125.0200
" />
<path d="M41.6840 114.9790
L45.6200 114.9790
" />
<path d="M41.6840 125.0200
L45.6200 125.0200
" />
<path d="M45.6200 114.9790
L45.6200 125.0200
" />
<path d="M73.3800 74.9790
L73.3800 76.3000
" />
<path d="M73.3800 74.9790
L77.3170 74.9790
" />
<path d="M73.3800 78.7500
L73.3800 79.1300
" />
<path d="M73.3800 80.8710
L73.3800 81.6300
" />
<path d="M73.3800 83.3700
L73.3800 85.0200
" />
<path d="M73.3800 85.0200
L77.3170 85.0200
" />
<path d="M81.6840 74.9790
L85.6200 74.9790
" />
<path d="M81.6840 85.0200
L85.6200 85.0200
" />
<path d="M85.6200 74.9790
L85.6200 85.0200
" />
<path d="M153.3800 114.9790
L153.3800 116.3000
" />
<path d="M153.3800 114.9790
L157.3170 114.9790
" />
<path d="M153.3800 118.7500
L153.3800 119.1300
" />
<path d="M153.3800 120.8710
L153.3800 121.6300
" />
<path d="M153.3800 123.3700
L153.3800 125.0200
" />
<path d="M153.3800 125.0200
L157.3170 125.0200
" />
<path d="M161.6840 114.9790
L165.6200 114.9790
" />
<path d="M161.6840 125.0200
L165.6200 125.0200
" />
<path d="M165.6200 114.9790
L165.6200 125.0200
" />
<path d="M113.3800 154.9790
L113.3800 156.3000
" />
<path d="M113.3800 154.9790
L117.3170 154.9790
" />
<path d="M113.3800 158.7500
L113.3800 159.1300
" />
<path d="M113.3800 160.8710
L113.3800 161.6300
" />
<path d="M113.3800 163.3700
L113.3800 165.0200
" />
<path d="M113.3800 165.0200
L117.3170 165.0200
" />
<path d="M121.6840 154.9790
L125.6200 154.9790
" />
<path d="M121.6840 165.0200
L125.6200 165.0200
" />
<path d="M125.6200 154.9790
L125.6200 165.0200
" />
<path d="M73.3800 34.9790
L73.3800 36.3000
" />
<path d="M73.3800 34.9790
L77.3170 34.9790
" />
<path d="M73.3800 38.7500
L73.3800 39.1300
" />
<path d="M73.3800 40.8710
L73.3800 41.6300
" />
<path d="M73.3800 43.3700
L73.3800 45.0200
" />
<path d="M73.3800 45.0200
L77.3170 45.0200
" />
<path d="M81.6840 34.9790
L85.6200 34.9790
" />
<path d="M81.6840 45.0200
L85.6200 45.0200
" />
<path d="M85.6200 34.9790
L85.6200 45.0200
" />
</g> 
</svg>
