<?xml version="1.0" standalone="no"?>
 <!DOCTYPE svg PUBLIC "-//W3C//DTD SVG 1.1//EN" 
 "http://www.w3.org/Graphics/SVG/1.1/DTD/svg11.dtd"> 
<svg
  xmlns:svg="http://www.w3.org/2000/svg"
  xmlns="http://www.w3.org/2000/svg"
  xmlns:xlink="http://www.w3.org/1999/xlink"
  xmlns:inkscape="http://www.inkscape.org/namespaces/inkscape"
  version="1.1"
  width="297.0022mm" height="210.0072mm" viewBox="0.0000 0.0000 297.0022 210.0072">
<title>SVG Image created as 16k2_new-Front.svg date 2026-05-18T23:17:13 </title>
  <desc>Image generated by PCBNEW </desc>
<g style="fill:#000000; fill-opacity:1.0000;stroke:#000000; stroke-opacity:1.0000;
stroke-linecap:round; stroke-linejoin:round;"
 transform="translate(0 0) scale(1 1)">
<path style="fill:#000000; fill-opacity:1.0000; stroke:none;fill-rule:evenodd;"
d="M 31.6000,158.4000
31.6000,156.6000
33.4000,156.6000
33.4000,158.4000
Z" /> 
</g>
<g style="fill:#000000; fill-opacity:1.0000; stroke:none;">
<circle cx="32.5000" cy="160.0000" r="0.9000" /> 
<circle cx="32.5000" cy="162.5000" r="0.9000" /> 
<path style="fill:#000000; fill-opacity:1.0000; stroke:none;fill-rule:evenodd;"
d="M 37.5000,154.8500
37.5155,154.6983
37.5703,154.5330
37.6617,154.3848
37.7848,154.2617
37.9330,154.1703
38.0983,154.1155
38.2500,154.1000
40.7500,154.1000
40.9017,154.1155
41.0670,154.1703
41.2152,154.2617
41.3383,154.3848
41.4297,154.5330
41.4845,154.6983
41.5000,154.8500
41.5000,156.3500
41.4845,156.5017
41.4297,156.6670
41.3383,156.8152
41.2152,156.9383
41.0670,157.0297
40.9017,157.0845
40.7500,157.1000
38.2500,157.1000
38.0983,157.0845
37.9330,157.0297
37.7848,156.9383
37.6617,156.8152
37.5703,156.6670
37.5155,156.5017
37.5000,156.3500
Z" /> 
<path style="fill:#000000; fill-opacity:1.0000; stroke:none;fill-rule:evenodd;"
d="M 37.5000,163.6500
37.5155,163.4983
37.5703,163.3330
37.6617,163.1848
37.7848,163.0617
37.9330,162.9703
38.0983,162.9155
38.2500,162.9000
40.7500,162.9000
40.9017,162.9155
41.0670,162.9703
41.2152,163.0617
41.3383,163.1848
41.4297,163.3330
41.4845,163.4983
41.5000,163.6500
41.5000,165.1500
41.4845,165.3017
41.4297,165.4670
41.3383,165.6152
41.2152,165.7383
41.0670,165.8297
40.9017,165.8845
40.7500,165.9000
38.2500,165.9000
38.0983,165.8845
37.9330,165.8297
37.7848,165.7383
37.6617,165.6152
37.5703,165.4670
37.5155,165.3017
37.5000,165.1500
Z" /> 
<path style="fill:#000000; fill-opacity:1.0000; stroke:none;fill-rule:evenodd;"
d="M 31.6000,78.4000
31.6000,76.6000
33.4000,76.6000
33.4000,78.4000
Z" /> 
<circle cx="32.5000" cy="80.0000" r="0.9000" /> 
<circle cx="32.5000" cy="82.5000" r="0.9000" /> 
<path style="fill:#000000; fill-opacity:1.0000; stroke:none;fill-rule:evenodd;"
d="M 37.5000,74.8500
37.5155,74.6983
37.5703,74.5330
37.6617,74.3848
37.7848,74.2617
37.9330,74.1703
38.0983,74.1155
38.2500,74.1000
40.7500,74.1000
40.9017,74.1155
41.0670,74.1703
41.2152,74.2617
41.3383,74.3848
41.4297,74.5330
41.4845,74.6983
41.5000,74.8500
41.5000,76.3500
41.4845,76.5017
41.4297,76.6670
41.3383,76.8152
41.2152,76.9383
41.0670,77.0297
40.9017,77.0845
40.7500,77.1000
38.2500,77.1000
38.0983,77.0845
37.9330,77.0297
37.7848,76.9383
37.6617,76.8152
37.5703,76.6670
37.5155,76.5017
37.5000,76.3500
Z" /> 
<path style="fill:#000000; fill-opacity:1.0000; stroke:none;fill-rule:evenodd;"
d="M 37.5000,83.6500
37.5155,83.4983
37.5703,83.3330
37.6617,83.1848
37.7848,83.0617
37.9330,82.9703
38.0983,82.9155
38.2500,82.9000
40.7500,82.9000
40.9017,82.9155
41.0670,82.9703
41.2152,83.0617
41.3383,83.1848
41.4297,83.3330
41.4845,83.4983
41.5000,83.6500
41.5000,85.1500
41.4845,85.3017
41.4297,85.4670
41.3383,85.6152
41.2152,85.7383
41.0670,85.8297
40.9017,85.8845
40.7500,85.9000
38.2500,85.9000
38.0983,85.8845
37.9330,85.8297
37.7848,85.7383
37.6617,85.6152
37.5703,85.4670
37.5155,85.3017
37.5000,85.1500
Z" /> 
<path style="fill:#000000; fill-opacity:1.0000; stroke:none;fill-rule:evenodd;"
d="M 152.1000,38.4000
152.1000,36.6000
153.9000,36.6000
153.9000,38.4000
Z" /> 
<circle cx="153.0000" cy="40.0000" r="0.9000" /> 
<circle cx="153.0000" cy="42.5000" r="0.9000" /> 
<path style="fill:#000000; fill-opacity:1.0000; stroke:none;fill-rule:evenodd;"
d="M 158.0000,34.8500
158.0155,34.6983
158.0703,34.5330
158.1617,34.3848
158.2848,34.2617
158.4330,34.1703
158.5983,34.1155
158.7500,34.1000
161.2500,34.1000
161.4017,34.1155
161.5670,34.1703
161.7152,34.2617
161.8383,34.3848
161.9297,34.5330
161.9845,34.6983
162.0000,34.8500
162.0000,36.3500
161.9845,36.5017
161.9297,36.6670
161.8383,36.8152
161.7152,36.9383
161.5670,37.0297
161.4017,37.0845
161.2500,37.1000
158.7500,37.1000
158.5983,37.0845
158.4330,37.0297
158.2848,36.9383
158.1617,36.8152
158.0703,36.6670
158.0155,36.5017
158.0000,36.3500
Z" /> 
<path style="fill:#000000; fill-opacity:1.0000; stroke:none;fill-rule:evenodd;"
d="M 158.0000,43.6500
158.0155,43.4983
158.0703,43.3330
158.1617,43.1848
158.2848,43.0617
158.4330,42.9703
158.5983,42.9155
158.7500,42.9000
161.2500,42.9000
161.4017,42.9155
161.5670,42.9703
161.7152,43.0617
161.8383,43.1848
161.9297,43.3330
161.9845,43.4983
162.0000,43.6500
162.0000,45.1500
161.9845,45.3017
161.9297,45.4670
161.8383,45.6152
161.7152,45.7383
161.5670,45.8297
161.4017,45.8845
161.2500,45.9000
158.7500,45.9000
158.5983,45.8845
158.4330,45.8297
158.2848,45.7383
158.1617,45.6152
158.0703,45.4670
158.0155,45.3017
158.0000,45.1500
Z" /> 
<path style="fill:#000000; fill-opacity:1.0000; stroke:none;fill-rule:evenodd;"
d="M 31.6000,38.4000
31.6000,36.6000
33.4000,36.6000
33.4000,38.4000
Z" /> 
<circle cx="32.5000" cy="40.0000" r="0.9000" /> 
<circle cx="32.5000" cy="42.5000" r="0.9000" /> 
<path style="fill:#000000; fill-opacity:1.0000; stroke:none;fill-rule:evenodd;"
d="M 37.5000,34.8500
37.5155,34.6983
37.5703,34.5330
37.6617,34.3848
37.7848,34.2617
37.9330,34.1703
38.0983,34.1155
38.2500,34.1000
40.7500,34.1000
40.9017,34.1155
41.0670,34.1703
41.2152,34.2617
41.3383,34.3848
41.4297,34.5330
41.4845,34.6983
41.5000,34.8500
41.5000,36.3500
41.4845,36.5017
41.4297,36.6670
41.3383,36.8152
41.2152,36.9383
41.0670,37.0297
40.9017,37.0845
40.7500,37.1000
38.2500,37.1000
38.0983,37.0845
37.9330,37.0297
37.7848,36.9383
37.6617,36.8152
37.5703,36.6670
37.5155,36.5017
37.5000,36.3500
Z" /> 
<path style="fill:#000000; fill-opacity:1.0000; stroke:none;fill-rule:evenodd;"
d="M 37.5000,43.6500
37.5155,43.4983
37.5703,43.3330
37.6617,43.1848
37.7848,43.0617
37.9330,42.9703
38.0983,42.9155
38.2500,42.9000
40.7500,42.9000
40.9017,42.9155
41.0670,42.9703
41.2152,43.0617
41.3383,43.1848
41.4297,43.3330
41.4845,43.4983
41.5000,43.6500
41.5000,45.1500
41.4845,45.3017
41.4297,45.4670
41.3383,45.6152
41.2152,45.7383
41.0670,45.8297
40.9017,45.8845
40.7500,45.9000
38.2500,45.9000
38.0983,45.8845
37.9330,45.8297
37.7848,45.7383
37.6617,45.6152
37.5703,45.4670
37.5155,45.3017
37.5000,45.1500
Z" /> 
<path style="fill:#000000; fill-opacity:1.0000; stroke:none;fill-rule:evenodd;"
d="M 111.6000,118.4000
111.6000,116.6000
113.4000,116.6000
113.4000,118.4000
Z" /> 
<circle cx="112.5000" cy="120.0000" r="0.9000" /> 
<circle cx="112.5000" cy="122.5000" r="0.9000" /> 
<path style="fill:#000000; fill-opacity:1.0000; stroke:none;fill-rule:evenodd;"
d="M 117.5000,114.8500
117.5155,114.6983
117.5703,114.5330
117.6617,114.3848
117.7848,114.2617
117.9330,114.1703
118.0983,114.1155
118.2500,114.1000
120.7500,114.1000
120.9017,114.1155
121.0670,114.1703
121.2152,114.2617
121.3383,114.3848
121.4297,114.5330
121.4845,114.6983
121.5000,114.8500
121.5000,116.3500
121.4845,116.5017
121.4297,116.6670
121.3383,116.8152
121.2152,116.9383
121.0670,117.0297
120.9017,117.0845
120.7500,117.1000
118.2500,117.1000
118.0983,117.0845
117.9330,117.0297
117.7848,116.9383
117.6617,116.8152
117.5703,116.6670
117.5155,116.5017
117.5000,116.3500
Z" /> 
<path style="fill:#000000; fill-opacity:1.0000; stroke:none;fill-rule:evenodd;"
d="M 117.5000,123.6500
117.5155,123.4983
117.5703,123.3330
117.6617,123.1848
117.7848,123.0617
117.9330,122.9703
118.0983,122.9155
118.2500,122.9000
120.7500,122.9000
120.9017,122.9155
121.0670,122.9703
121.2152,123.0617
121.3383,123.1848
121.4297,123.3330
121.4845,123.4983
121.5000,123.6500
121.5000,125.1500
121.4845,125.3017
121.4297,125.4670
121.3383,125.6152
121.2152,125.7383
121.0670,125.8297
120.9017,125.8845
120.7500,125.9000
118.2500,125.9000
118.0983,125.8845
117.9330,125.8297
117.7848,125.7383
117.6617,125.6152
117.5703,125.4670
117.5155,125.3017
117.5000,125.1500
Z" /> 
<path style="fill:#000000; fill-opacity:1.0000; stroke:none;fill-rule:evenodd;"
d="M 151.6000,158.4000
151.6000,156.6000
153.4000,156.6000
153.4000,158.4000
Z" /> 
<circle cx="152.5000" cy="160.0000" r="0.9000" /> 
<circle cx="152.5000" cy="162.5000" r="0.9000" /> 
<path style="fill:#000000; fill-opacity:1.0000; stroke:none;fill-rule:evenodd;"
d="M 157.5000,154.8500
157.5155,154.6983
157.5703,154.5330
157.6617,154.3848
157.7848,154.2617
157.9330,154.1703
158.0983,154.1155
158.2500,154.1000
160.7500,154.1000
160.9017,154.1155
161.0670,154.1703
161.2152,154.2617
161.3383,154.3848
161.4297,154.5330
161.4845,154.6983
161.5000,154.8500
161.5000,156.3500
161.4845,156.5017
161.4297,156.6670
161.3383,156.8152
161.2152,156.9383
161.0670,157.0297
160.9017,157.0845
160.7500,157.1000
158.2500,157.1000
158.0983,157.0845
157.9330,157.0297
157.7848,156.9383
157.6617,156.8152
157.5703,156.6670
157.5155,156.5017
157.5000,156.3500
Z" /> 
<path style="fill:#000000; fill-opacity:1.0000; stroke:none;fill-rule:evenodd;"
d="M 157.5000,163.6500
157.5155,163.4983
157.5703,163.3330
157.6617,163.1848
157.7848,163.0617
157.9330,162.9703
158.0983,162.9155
158.2500,162.9000
160.7500,162.9000
160.9017,162.9155
161.0670,162.9703
161.2152,163.0617
161.3383,163.1848
161.4297,163.3330
161.4845,163.4983
161.5000,163.6500
161.5000,165.1500
161.4845,165.3017
161.4297,165.4670
161.3383,165.6152
161.2152,165.7383
161.0670,165.8297
160.9017,165.8845
160.7500,165.9000
158.2500,165.9000
158.0983,165.8845
157.9330,165.8297
157.7848,165.7383
157.6617,165.6152
157.5703,165.4670
157.5155,165.3017
157.5000,165.1500
Z" /> 
<path style="fill:#000000; fill-opacity:1.0000; stroke:none;fill-rule:evenodd;"
d="M 71.6000,158.4000
71.6000,156.6000
73.4000,156.6000
73.4000,158.4000
Z" /> 
<circle cx="72.5000" cy="160.0000" r="0.9000" /> 
<circle cx="72.5000" cy="162.5000" r="0.9000" /> 
<path style="fill:#000000; fill-opacity:1.0000; stroke:none;fill-rule:evenodd;"
d="M 77.5000,154.8500
77.5155,154.6983
77.5703,154.5330
77.6617,154.3848
77.7848,154.2617
77.9330,154.1703
78.0983,154.1155
78.2500,154.1000
80.7500,154.1000
80.9017,154.1155
81.0670,154.1703
81.2152,154.2617
81.3383,154.3848
81.4297,154.5330
81.4845,154.6983
81.5000,154.8500
81.5000,156.3500
81.4845,156.5017
81.4297,156.6670
81.3383,156.8152
81.2152,156.9383
81.0670,157.0297
80.9017,157.0845
80.7500,157.1000
78.2500,157.1000
78.0983,157.0845
77.9330,157.0297
77.7848,156.9383
77.6617,156.8152
77.5703,156.6670
77.5155,156.5017
77.5000,156.3500
Z" /> 
<path style="fill:#000000; fill-opacity:1.0000; stroke:none;fill-rule:evenodd;"
d="M 77.5000,163.6500
77.5155,163.4983
77.5703,163.3330
77.6617,163.1848
77.7848,163.0617
77.9330,162.9703
78.0983,162.9155
78.2500,162.9000
80.7500,162.9000
80.9017,162.9155
81.0670,162.9703
81.2152,163.0617
81.3383,163.1848
81.4297,163.3330
81.4845,163.4983
81.5000,163.6500
81.5000,165.1500
81.4845,165.3017
81.4297,165.4670
81.3383,165.6152
81.2152,165.7383
81.0670,165.8297
80.9017,165.8845
80.7500,165.9000
78.2500,165.9000
78.0983,165.8845
77.9330,165.8297
77.7848,165.7383
77.6617,165.6152
77.5703,165.4670
77.5155,165.3017
77.5000,165.1500
Z" /> 
<path style="fill:#000000; fill-opacity:1.0000; stroke:none;fill-rule:evenodd;"
d="M 111.6000,38.4000
111.6000,36.6000
113.4000,36.6000
113.4000,38.4000
Z" /> 
<circle cx="112.5000" cy="40.0000" r="0.9000" /> 
<circle cx="112.5000" cy="42.5000" r="0.9000" /> 
<path style="fill:#000000; fill-opacity:1.0000; stroke:none;fill-rule:evenodd;"
d="M 117.5000,34.8500
117.5155,34.6983
117.5703,34.5330
117.6617,34.3848
117.7848,34.2617
117.9330,34.1703
118.0983,34.1155
118.2500,34.1000
120.7500,34.1000
120.9017,34.1155
121.0670,34.1703
121.2152,34.2617
121.3383,34.3848
121.4297,34.5330
121.4845,34.6983
121.5000,34.8500
121.5000,36.3500
121.4845,36.5017
121.4297,36.6670
121.3383,36.8152
121.2152,36.9383
121.0670,37.0297
120.9017,37.0845
120.7500,37.1000
118.2500,37.1000
118.0983,37.0845
117.9330,37.0297
117.7848,36.9383
117.6617,36.8152
117.5703,36.6670
117.5155,36.5017
117.5000,36.3500
Z" /> 
<path style="fill:#000000; fill-opacity:1.0000; stroke:none;fill-rule:evenodd;"
d="M 117.5000,43.6500
117.5155,43.4983
117.5703,43.3330
117.6617,43.1848
117.7848,43.0617
117.9330,42.9703
118.0983,42.9155
118.2500,42.9000
120.7500,42.9000
120.9017,42.9155
121.0670,42.9703
121.2152,43.0617
121.3383,43.1848
121.4297,43.3330
121.4845,43.4983
121.5000,43.6500
121.5000,45.1500
121.4845,45.3017
121.4297,45.4670
121.3383,45.6152
121.2152,45.7383
121.0670,45.8297
120.9017,45.8845
120.7500,45.9000
118.2500,45.9000
118.0983,45.8845
117.9330,45.8297
117.7848,45.7383
117.6617,45.6152
117.5703,45.4670
117.5155,45.3017
117.5000,45.1500
Z" /> 
<path style="fill:#000000; fill-opacity:1.0000; stroke:none;fill-rule:evenodd;"
d="M 111.6000,78.4000
111.6000,76.6000
113.4000,76.6000
113.4000,78.4000
Z" /> 
<circle cx="112.5000" cy="80.0000" r="0.9000" /> 
<circle cx="112.5000" cy="82.5000" r="0.9000" /> 
<path style="fill:#000000; fill-opacity:1.0000; stroke:none;fill-rule:evenodd;"
d="M 117.5000,74.8500
117.5155,74.6983
117.5703,74.5330
117.6617,74.3848
117.7848,74.2617
117.9330,74.1703
118.0983,74.1155
118.2500,74.1000
120.7500,74.1000
120.9017,74.1155
121.0670,74.1703
121.2152,74.2617
121.3383,74.3848
121.4297,74.5330
121.4845,74.6983
121.5000,74.8500
121.5000,76.3500
121.4845,76.5017
121.4297,76.6670
121.3383,76.8152
121.2152,76.9383
121.0670,77.0297
120.9017,77.0845
120.7500,77.1000
118.2500,77.1000
118.0983,77.0845
117.9330,77.0297
117.7848,76.9383
117.6617,76.8152
117.5703,76.6670
117.5155,76.5017
117.5000,76.3500
Z" /> 
<path style="fill:#000000; fill-opacity:1.0000; stroke:none;fill-rule:evenodd;"
d="M 117.5000,83.6500
117.5155,83.4983
117.5703,83.3330
117.6617,83.1848
117.7848,83.0617
117.9330,82.9703
118.0983,82.9155
118.2500,82.9000
120.7500,82.9000
120.9017,82.9155
121.0670,82.9703
121.2152,83.0617
121.3383,83.1848
121.4297,83.3330
121.4845,83.4983
121.5000,83.6500
121.5000,85.1500
121.4845,85.3017
121.4297,85.4670
121.3383,85.6152
121.2152,85.7383
121.0670,85.8297
120.9017,85.8845
120.7500,85.9000
118.2500,85.9000
118.0983,85.8845
117.9330,85.8297
117.7848,85.7383
117.6617,85.6152
117.5703,85.4670
117.5155,85.3017
117.5000,85.1500
Z" /> 
<path style="fill:#000000; fill-opacity:1.0000; stroke:none;fill-rule:evenodd;"
d="M 151.6000,78.4000
151.6000,76.6000
153.4000,76.6000
153.4000,78.4000
Z" /> 
<circle cx="152.5000" cy="80.0000" r="0.9000" /> 
<circle cx="152.5000" cy="82.5000" r="0.9000" /> 
<path style="fill:#000000; fill-opacity:1.0000; stroke:none;fill-rule:evenodd;"
d="M 157.5000,74.8500
157.5155,74.6983
157.5703,74.5330
157.6617,74.3848
157.7848,74.2617
157.9330,74.1703
158.0983,74.1155
158.2500,74.1000
160.7500,74.1000
160.9017,74.1155
161.0670,74.1703
161.2152,74.2617
161.3383,74.3848
161.4297,74.5330
161.4845,74.6983
161.5000,74.8500
161.5000,76.3500
161.4845,76.5017
161.4297,76.6670
161.3383,76.8152
161.2152,76.9383
161.0670,77.0297
160.9017,77.0845
160.7500,77.1000
158.2500,77.1000
158.0983,77.0845
157.9330,77.0297
157.7848,76.9383
157.6617,76.8152
157.5703,76.6670
157.5155,76.5017
157.5000,76.3500
Z" /> 
<path style="fill:#000000; fill-opacity:1.0000; stroke:none;fill-rule:evenodd;"
d="M 157.5000,83.6500
157.5155,83.4983
157.5703,83.3330
157.6617,83.1848
157.7848,83.0617
157.9330,82.9703
158.0983,82.9155
158.2500,82.9000
160.7500,82.9000
160.9017,82.9155
161.0670,82.9703
161.2152,83.0617
161.3383,83.1848
161.4297,83.3330
161.4845,83.4983
161.5000,83.6500
161.5000,85.1500
161.4845,85.3017
161.4297,85.4670
161.3383,85.6152
161.2152,85.7383
161.0670,85.8297
160.9017,85.8845
160.7500,85.9000
158.2500,85.9000
158.0983,85.8845
157.9330,85.8297
157.7848,85.7383
157.6617,85.6152
157.5703,85.4670
157.5155,85.3017
157.5000,85.1500
Z" /> 
<path style="fill:#000000; fill-opacity:1.0000; stroke:none;fill-rule:evenodd;"
d="M 71.6000,118.4000
71.6000,116.6000
73.4000,116.6000
73.4000,118.4000
Z" /> 
<circle cx="72.5000" cy="120.0000" r="0.9000" /> 
<circle cx="72.5000" cy="122.5000" r="0.9000" /> 
<path style="fill:#000000; fill-opacity:1.0000; stroke:none;fill-rule:evenodd;"
d="M 77.5000,114.8500
77.5155,114.6983
77.5703,114.5330
77.6617,114.3848
77.7848,114.2617
77.9330,114.1703
78.0983,114.1155
78.2500,114.1000
80.7500,114.1000
80.9017,114.1155
81.0670,114.1703
81.2152,114.2617
81.3383,114.3848
81.4297,114.5330
81.4845,114.6983
81.5000,114.8500
81.5000,116.3500
81.4845,116.5017
81.4297,116.6670
81.3383,116.8152
81.2152,116.9383
81.0670,117.0297
80.9017,117.0845
80.7500,117.1000
78.2500,117.1000
78.0983,117.0845
77.9330,117.0297
77.7848,116.9383
77.6617,116.8152
77.5703,116.6670
77.5155,116.5017
77.5000,116.3500
Z" /> 
<path style="fill:#000000; fill-opacity:1.0000; stroke:none;fill-rule:evenodd;"
d="M 77.5000,123.6500
77.5155,123.4983
77.5703,123.3330
77.6617,123.1848
77.7848,123.0617
77.9330,122.9703
78.0983,122.9155
78.2500,122.9000
80.7500,122.9000
80.9017,122.9155
81.0670,122.9703
81.2152,123.0617
81.3383,123.1848
81.4297,123.3330
81.4845,123.4983
81.5000,123.6500
81.5000,125.1500
81.4845,125.3017
81.4297,125.4670
81.3383,125.6152
81.2152,125.7383
81.0670,125.8297
80.9017,125.8845
80.7500,125.9000
78.2500,125.9000
78.0983,125.8845
77.9330,125.8297
77.7848,125.7383
77.6617,125.6152
77.5703,125.4670
77.5155,125.3017
77.5000,125.1500
Z" /> 
<path style="fill:#000000; fill-opacity:1.0000; stroke:none;fill-rule:evenodd;"
d="M 31.6000,118.4000
31.6000,116.6000
33.4000,116.6000
33.4000,118.4000
Z" /> 
<circle cx="32.5000" cy="120.0000" r="0.9000" /> 
<circle cx="32.5000" cy="122.5000" r="0.9000" /> 
<path style="fill:#000000; fill-opacity:1.0000; stroke:none;fill-rule:evenodd;"
d="M 37.5000,114.8500
37.5155,114.6983
37.5703,114.5330
37.6617,114.3848
37.7848,114.2617
37.9330,114.1703
38.0983,114.1155
38.2500,114.1000
40.7500,114.1000
40.9017,114.1155
41.0670,114.1703
41.2152,114.2617
41.3383,114.3848
41.4297,114.5330
41.4845,114.6983
41.5000,114.8500
41.5000,116.3500
41.4845,116.5017
41.4297,116.6670
41.3383,116.8152
41.2152,116.9383
41.0670,117.0297
40.9017,117.0845
40.7500,117.1000
38.2500,117.1000
38.0983,117.0845
37.9330,117.0297
37.7848,116.9383
37.6617,116.8152
37.5703,116.6670
37.5155,116.5017
37.5000,116.3500
Z" /> 
<path style="fill:#000000; fill-opacity:1.0000; stroke:none;fill-rule:evenodd;"
d="M 37.5000,123.6500
37.5155,123.4983
37.5703,123.3330
37.6617,123.1848
37.7848,123.0617
37.9330,122.9703
38.0983,122.9155
38.2500,122.9000
40.7500,122.9000
40.9017,122.9155
41.0670,122.9703
41.2152,123.0617
41.3383,123.1848
41.4297,123.3330
41.4845,123.4983
41.5000,123.6500
41.5000,125.1500
41.4845,125.3017
41.4297,125.4670
41.3383,125.6152
41.2152,125.7383
41.0670,125.8297
40.9017,125.8845
40.7500,125.9000
38.2500,125.9000
38.0983,125.8845
37.9330,125.8297
37.7848,125.7383
37.6617,125.6152
37.5703,125.4670
37.5155,125.3017
37.5000,125.1500
Z" /> 
<path style="fill:#000000; fill-opacity:1.0000; stroke:none;fill-rule:evenodd;"
d="M 71.6000,78.4000
71.6000,76.6000
73.4000,76.6000
73.4000,78.4000
Z" /> 
<circle cx="72.5000" cy="80.0000" r="0.9000" /> 
<circle cx="72.5000" cy="82.5000" r="0.9000" /> 
<path style="fill:#000000; fill-opacity:1.0000; stroke:none;fill-rule:evenodd;"
d="M 77.5000,74.8500
77.5155,74.6983
77.5703,74.5330
77.6617,74.3848
77.7848,74.2617
77.9330,74.1703
78.0983,74.1155
78.2500,74.1000
80.7500,74.1000
80.9017,74.1155
81.0670,74.1703
81.2152,74.2617
81.3383,74.3848
81.4297,74.5330
81.4845,74.6983
81.5000,74.8500
81.5000,76.3500
81.4845,76.5017
81.4297,76.6670
81.3383,76.8152
81.2152,76.9383
81.0670,77.0297
80.9017,77.0845
80.7500,77.1000
78.2500,77.1000
78.0983,77.0845
77.9330,77.0297
77.7848,76.9383
77.6617,76.8152
77.5703,76.6670
77.5155,76.5017
77.5000,76.3500
Z" /> 
<path style="fill:#000000; fill-opacity:1.0000; stroke:none;fill-rule:evenodd;"
d="M 77.5000,83.6500
77.5155,83.4983
77.5703,83.3330
77.6617,83.1848
77.7848,83.0617
77.9330,82.9703
78.0983,82.9155
78.2500,82.9000
80.7500,82.9000
80.9017,82.9155
81.0670,82.9703
81.2152,83.0617
81.3383,83.1848
81.4297,83.3330
81.4845,83.4983
81.5000,83.6500
81.5000,85.1500
81.4845,85.3017
81.4297,85.4670
81.3383,85.6152
81.2152,85.7383
81.0670,85.8297
80.9017,85.8845
80.7500,85.9000
78.2500,85.9000
78.0983,85.8845
77.9330,85.8297
77.7848,85.7383
77.6617,85.6152
77.5703,85.4670
77.5155,85.3017
77.5000,85.1500
Z" /> 
<path style="fill:#000000; fill-opacity:1.0000; stroke:none;fill-rule:evenodd;"
d="M 151.6000,118.4000
151.6000,116.6000
153.4000,116.6000
153.4000,118.4000
Z" /> 
<circle cx="152.5000" cy="120.0000" r="0.9000" /> 
<circle cx="152.5000" cy="122.5000" r="0.9000" /> 
<path style="fill:#000000; fill-opacity:1.0000; stroke:none;fill-rule:evenodd;"
d="M 157.5000,114.8500
157.5155,114.6983
157.5703,114.5330
157.6617,114.3848
157.7848,114.2617
157.9330,114.1703
158.0983,114.1155
158.2500,114.1000
160.7500,114.1000
160.9017,114.1155
161.0670,114.1703
161.2152,114.2617
161.3383,114.3848
161.4297,114.5330
161.4845,114.6983
161.5000,114.8500
161.5000,116.3500
161.4845,116.5017
161.4297,116.6670
161.3383,116.8152
161.2152,116.9383
161.0670,117.0297
160.9017,117.0845
160.7500,117.1000
158.2500,117.1000
158.0983,117.0845
157.9330,117.0297
157.7848,116.9383
157.6617,116.8152
157.5703,116.6670
157.5155,116.5017
157.5000,116.3500
Z" /> 
<path style="fill:#000000; fill-opacity:1.0000; stroke:none;fill-rule:evenodd;"
d="M 157.5000,123.6500
157.5155,123.4983
157.5703,123.3330
157.6617,123.1848
157.7848,123.0617
157.9330,122.9703
158.0983,122.9155
158.2500,122.9000
160.7500,122.9000
160.9017,122.9155
161.0670,122.9703
161.2152,123.0617
161.3383,123.1848
161.4297,123.3330
161.4845,123.4983
161.5000,123.6500
161.5000,125.1500
161.4845,125.3017
161.4297,125.4670
161.3383,125.6152
161.2152,125.7383
161.0670,125.8297
160.9017,125.8845
160.7500,125.9000
158.2500,125.9000
158.0983,125.8845
157.9330,125.8297
157.7848,125.7383
157.6617,125.6152
157.5703,125.4670
157.5155,125.3017
157.5000,125.1500
Z" /> 
<path style="fill:#000000; fill-opacity:1.0000; stroke:none;fill-rule:evenodd;"
d="M 111.6000,158.4000
111.6000,156.6000
113.4000,156.6000
113.4000,158.4000
Z" /> 
<circle cx="112.5000" cy="160.0000" r="0.9000" /> 
<circle cx="112.5000" cy="162.5000" r="0.9000" /> 
<path style="fill:#000000; fill-opacity:1.0000; stroke:none;fill-rule:evenodd;"
d="M 117.5000,154.8500
117.5155,154.6983
117.5703,154.5330
117.6617,154.3848
117.7848,154.2617
117.9330,154.1703
118.0983,154.1155
118.2500,154.1000
120.7500,154.1000
120.9017,154.1155
121.0670,154.1703
121.2152,154.2617
121.3383,154.3848
121.4297,154.5330
121.4845,154.6983
121.5000,154.8500
121.5000,156.3500
121.4845,156.5017
121.4297,156.6670
121.3383,156.8152
121.2152,156.9383
121.0670,157.0297
120.9017,157.0845
120.7500,157.1000
118.2500,157.1000
118.0983,157.0845
117.9330,157.0297
117.7848,156.9383
117.6617,156.8152
117.5703,156.6670
117.5155,156.5017
117.5000,156.3500
Z" /> 
<path style="fill:#000000; fill-opacity:1.0000; stroke:none;fill-rule:evenodd;"
d="M 117.5000,163.6500
117.5155,163.4983
117.5703,163.3330
117.6617,163.1848
117.7848,163.0617
117.9330,162.9703
118.0983,162.9155
118.2500,162.9000
120.7500,162.9000
120.9017,162.9155
121.0670,162.9703
121.2152,163.0617
121.3383,163.1848
121.4297,163.3330
121.4845,163.4983
121.5000,163.6500
121.5000,165.1500
121.4845,165.3017
121.4297,165.4670
121.3383,165.6152
121.2152,165.7383
121.0670,165.8297
120.9017,165.8845
120.7500,165.9000
118.2500,165.9000
118.0983,165.8845
117.9330,165.8297
117.7848,165.7383
117.6617,165.6152
117.5703,165.4670
117.5155,165.3017
117.5000,165.1500
Z" /> 
<path style="fill:#000000; fill-opacity:1.0000; stroke:none;fill-rule:evenodd;"
d="M 71.6000,38.4000
71.6000,36.6000
73.4000,36.6000
73.4000,38.4000
Z" /> 
<circle cx="72.5000" cy="40.0000" r="0.9000" /> 
<circle cx="72.5000" cy="42.5000" r="0.9000" /> 
<path style="fill:#000000; fill-opacity:1.0000; stroke:none;fill-rule:evenodd;"
d="M 77.5000,34.8500
77.5155,34.6983
77.5703,34.5330
77.6617,34.3848
77.7848,34.2617
77.9330,34.1703
78.0983,34.1155
78.2500,34.1000
80.7500,34.1000
80.9017,34.1155
81.0670,34.1703
81.2152,34.2617
81.3383,34.3848
81.4297,34.5330
81.4845,34.6983
81.5000,34.8500
81.5000,36.3500
81.4845,36.5017
81.4297,36.6670
81.3383,36.8152
81.2152,36.9383
81.0670,37.0297
80.9017,37.0845
80.7500,37.1000
78.2500,37.1000
78.0983,37.0845
77.9330,37.0297
77.7848,36.9383
77.6617,36.8152
77.5703,36.6670
77.5155,36.5017
77.5000,36.3500
Z" /> 
<path style="fill:#000000; fill-opacity:1.0000; stroke:none;fill-rule:evenodd;"
d="M 77.5000,43.6500
77.5155,43.4983
77.5703,43.3330
77.6617,43.1848
77.7848,43.0617
77.9330,42.9703
78.0983,42.9155
78.2500,42.9000
80.7500,42.9000
80.9017,42.9155
81.0670,42.9703
81.2152,43.0617
81.3383,43.1848
81.4297,43.3330
81.4845,43.4983
81.5000,43.6500
81.5000,45.1500
81.4845,45.3017
81.4297,45.4670
81.3383,45.6152
81.2152,45.7383
81.0670,45.8297
80.9017,45.8845
80.7500,45.9000
78.2500,45.9000
78.0983,45.8845
77.9330,45.8297
77.7848,45.7383
77.6617,45.6152
77.5703,45.4670
77.5155,45.3017
77.5000,45.1500
Z" /> 
<path style="fill:#000000; fill-opacity:1.0000; stroke:none;fill-rule:evenodd;"
d="M 59.7250,92.1500
59.8207,92.1690
59.9018,92.2232
59.9560,92.3043
59.9750,92.4000
59.9750,93.6000
59.9560,93.6957
59.9018,93.7768
59.8207,93.8310
59.7250,93.8500
58.2750,93.8500
58.1793,93.8310
58.0982,93.7768
58.0440,93.6957
58.0250,93.6000
58.0250,92.4000
58.0440,92.3043
58.0982,92.2232
58.1793,92.1690
58.2750,92.1500
Z" /> 
</g>
<g style="fill:none; 
stroke:#000000; stroke-width:1.7000; stroke-opacity:1; 
stroke-linecap:round; stroke-linejoin:round;">
<path d="M59.1250 95.5000
L58.8750 95.5000
" />
<path d="M59.1250 98.0000
L58.8750 98.0000
" />
<path d="M59.1250 100.5000
L58.8750 100.5000
" />
<path d="M59.1250 103.0000
L58.8750 103.0000
" />
<path d="M59.1250 105.5000
L58.8750 105.5000
" />
<path d="M59.1250 108.0000
L58.8750 108.0000
" />
<path style="fill:#000000; fill-opacity:1.0000; stroke:none;fill-rule:evenodd;"
d="M 105.8500,79.1500
105.8500,80.8500
104.1500,80.8500
104.1500,79.1500
Z" /> 
</g>
<g style="fill:#000000; fill-opacity:1.0000; stroke:none;">
<circle cx="105.0000" cy="82.5400" r="0.8500" /> 
<circle cx="105.0000" cy="85.0800" r="0.8500" /> 
<circle cx="105.0000" cy="87.6200" r="0.8500" /> 
<circle cx="105.0000" cy="90.1600" r="0.8500" /> 
<circle cx="105.0000" cy="92.7000" r="0.8500" /> 
<circle cx="105.0000" cy="95.2400" r="0.8500" /> 
<circle cx="105.0000" cy="97.7800" r="0.8500" /> 
<circle cx="105.0000" cy="100.3200" r="0.8500" /> 
<circle cx="105.0000" cy="102.8600" r="0.8500" /> 
<circle cx="105.0000" cy="105.4000" r="0.8500" /> 
<circle cx="105.0000" cy="107.9400" r="0.8500" /> 
<circle cx="105.0000" cy="110.4800" r="0.8500" /> 
<circle cx="105.0000" cy="113.0200" r="0.8500" /> 
<circle cx="105.0000" cy="115.5600" r="0.8500" /> 
<circle cx="105.0000" cy="118.1000" r="0.8500" /> 
<path style="fill:#000000; fill-opacity:1.0000; stroke:none;fill-rule:evenodd;"
d="M 90.6100,89.3700
90.6100,91.0700
88.9100,91.0700
88.9100,89.3700
Z" /> 
<circle cx="89.7600" cy="92.7600" r="0.8500" /> 
<circle cx="89.7600" cy="95.3000" r="0.8500" /> 
<circle cx="89.7600" cy="97.8400" r="0.8500" /> 
<circle cx="89.7600" cy="100.3800" r="0.8500" /> 
<circle cx="89.7600" cy="102.9200" r="0.8500" /> 
<circle cx="89.7600" cy="105.4600" r="0.8500" /> 
<circle cx="89.7600" cy="108.0000" r="0.8500" /> 
</g> 
</svg>
